<mxfile host="app.diagrams.net" agent="Mozilla/5.0 (X11; Ubuntu; Linux x86_64; rv:129.0) Gecko/20100101 Firefox/129.0" version="24.7.8">
  <diagram name="Page-1" id="WpA0GOzad-FoQttKE3py">
    <mxGraphModel dx="943" dy="545" grid="1" gridSize="10" guides="1" tooltips="1" connect="1" arrows="1" fold="1" page="1" pageScale="1" pageWidth="850" pageHeight="1100" math="0" shadow="0">
      <root>
        <mxCell id="0" />
        <mxCell id="1" parent="0" />
        <mxCell id="54Sqg8tzMFon0Dzdc4sl-2" value="&lt;font style=&quot;font-size: 14px; background-color: rgb(153, 193, 241);&quot;&gt;Input&lt;/font&gt;" style="text;html=1;align=center;verticalAlign=middle;whiteSpace=wrap;rounded=0;" vertex="1" parent="1">
          <mxGeometry x="150" y="680" width="60" height="30" as="geometry" />
        </mxCell>
        <mxCell id="54Sqg8tzMFon0Dzdc4sl-3" value="&lt;font style=&quot;font-size: 14px; background-color: rgb(143, 240, 164);&quot;&gt;Output&lt;/font&gt;" style="text;html=1;align=center;verticalAlign=middle;whiteSpace=wrap;rounded=0;" vertex="1" parent="1">
          <mxGeometry x="155" y="710" width="60" height="30" as="geometry" />
        </mxCell>
        <mxCell id="54Sqg8tzMFon0Dzdc4sl-4" value="" style="swimlane;startSize=0;" vertex="1" parent="1">
          <mxGeometry x="155" y="650" width="65" height="90" as="geometry" />
        </mxCell>
        <mxCell id="54Sqg8tzMFon0Dzdc4sl-5" value="&lt;font style=&quot;background-color: rgb(222, 221, 218);&quot; size=&quot;1&quot;&gt;&lt;span style=&quot;font-size: 14px;&quot;&gt;System&lt;/span&gt;&lt;/font&gt;" style="text;html=1;align=center;verticalAlign=middle;whiteSpace=wrap;rounded=0;" vertex="1" parent="54Sqg8tzMFon0Dzdc4sl-4">
          <mxGeometry x="2.5" width="60" height="30" as="geometry" />
        </mxCell>
        <mxCell id="54Sqg8tzMFon0Dzdc4sl-9" value="&lt;div style=&quot;font-size: 13px;&quot;&gt;&lt;font style=&quot;font-size: 14px;&quot;&gt;Target preferences:&lt;/font&gt;&lt;/div&gt;&lt;div&gt;&lt;font style=&quot;font-size: 14px;&quot;&gt;Target position. &lt;/font&gt;&lt;/div&gt;" style="text;html=1;align=center;verticalAlign=middle;whiteSpace=wrap;rounded=0;" vertex="1" parent="1">
          <mxGeometry x="250" y="135" width="130" height="30" as="geometry" />
        </mxCell>
        <mxCell id="54Sqg8tzMFon0Dzdc4sl-10" value="&lt;font style=&quot;font-size: 14px;&quot;&gt;Target state estimates, e.g position, velocity &lt;/font&gt;" style="text;html=1;align=center;verticalAlign=middle;whiteSpace=wrap;rounded=0;" vertex="1" parent="1">
          <mxGeometry x="310" y="80" width="150" height="30" as="geometry" />
        </mxCell>
        <mxCell id="54Sqg8tzMFon0Dzdc4sl-14" value="&lt;font style=&quot;font-size: 14px;&quot;&gt;Actuator commands&lt;br&gt;&lt;/font&gt;" style="text;html=1;align=center;verticalAlign=middle;whiteSpace=wrap;rounded=0;" vertex="1" parent="1">
          <mxGeometry x="650" y="140" width="60" height="30" as="geometry" />
        </mxCell>
        <mxCell id="54Sqg8tzMFon0Dzdc4sl-16" value="&lt;font style=&quot;font-size: 14px;&quot;&gt;Target motion / target presence&lt;br&gt;&lt;/font&gt;" style="text;html=1;align=center;verticalAlign=middle;whiteSpace=wrap;rounded=0;" vertex="1" parent="1">
          <mxGeometry x="30" y="250" width="60" height="30" as="geometry" />
        </mxCell>
        <mxCell id="54Sqg8tzMFon0Dzdc4sl-28" value="" style="edgeStyle=orthogonalEdgeStyle;rounded=0;orthogonalLoop=1;jettySize=auto;html=1;" edge="1" parent="1" source="54Sqg8tzMFon0Dzdc4sl-21" target="54Sqg8tzMFon0Dzdc4sl-22">
          <mxGeometry relative="1" as="geometry" />
        </mxCell>
        <mxCell id="54Sqg8tzMFon0Dzdc4sl-21" value="&lt;div&gt;&lt;font style=&quot;font-size: 14px;&quot;&gt;Target Sensors:&lt;/font&gt;&lt;/div&gt;&lt;div&gt;&lt;font style=&quot;font-size: 14px;&quot;&gt;Camera system&lt;br&gt;&lt;/font&gt;&lt;/div&gt;" style="rounded=0;whiteSpace=wrap;html=1;" vertex="1" parent="1">
          <mxGeometry x="100" y="200" width="120" height="60" as="geometry" />
        </mxCell>
        <mxCell id="54Sqg8tzMFon0Dzdc4sl-29" value="" style="edgeStyle=orthogonalEdgeStyle;rounded=0;orthogonalLoop=1;jettySize=auto;html=1;" edge="1" parent="1" source="54Sqg8tzMFon0Dzdc4sl-22" target="54Sqg8tzMFon0Dzdc4sl-23">
          <mxGeometry relative="1" as="geometry" />
        </mxCell>
        <mxCell id="54Sqg8tzMFon0Dzdc4sl-22" value="&lt;div style=&quot;font-size: 14px;&quot;&gt;&lt;font style=&quot;font-size: 14px;&quot;&gt;Guidance Filter: &lt;font style=&quot;font-size: 14px;&quot;&gt;Kalman&lt;/font&gt;&lt;br&gt;&lt;/font&gt;&lt;/div&gt;" style="rounded=0;whiteSpace=wrap;html=1;" vertex="1" parent="1">
          <mxGeometry x="250" y="200" width="120" height="60" as="geometry" />
        </mxCell>
        <mxCell id="54Sqg8tzMFon0Dzdc4sl-30" value="" style="edgeStyle=orthogonalEdgeStyle;rounded=0;orthogonalLoop=1;jettySize=auto;html=1;" edge="1" parent="1" source="54Sqg8tzMFon0Dzdc4sl-23" target="54Sqg8tzMFon0Dzdc4sl-24">
          <mxGeometry relative="1" as="geometry" />
        </mxCell>
        <mxCell id="54Sqg8tzMFon0Dzdc4sl-23" value="&lt;div&gt;&lt;font style=&quot;font-size: 14px;&quot;&gt;Guidance law:&lt;/font&gt;&lt;/div&gt;&lt;div&gt;&lt;font style=&quot;font-size: 14px;&quot;&gt;TPN&lt;/font&gt;&lt;/div&gt;" style="rounded=0;whiteSpace=wrap;html=1;" vertex="1" parent="1">
          <mxGeometry x="400" y="200" width="120" height="60" as="geometry" />
        </mxCell>
        <mxCell id="54Sqg8tzMFon0Dzdc4sl-31" value="" style="edgeStyle=orthogonalEdgeStyle;rounded=0;orthogonalLoop=1;jettySize=auto;html=1;" edge="1" parent="1" source="54Sqg8tzMFon0Dzdc4sl-24" target="54Sqg8tzMFon0Dzdc4sl-27">
          <mxGeometry relative="1" as="geometry" />
        </mxCell>
        <mxCell id="54Sqg8tzMFon0Dzdc4sl-24" value="&lt;font style=&quot;font-size: 14px;&quot;&gt;Autopilot&lt;/font&gt;" style="rounded=0;whiteSpace=wrap;html=1;" vertex="1" parent="1">
          <mxGeometry x="550" y="200" width="120" height="60" as="geometry" />
        </mxCell>
        <mxCell id="54Sqg8tzMFon0Dzdc4sl-32" style="edgeStyle=orthogonalEdgeStyle;rounded=0;orthogonalLoop=1;jettySize=auto;html=1;entryX=0.5;entryY=1;entryDx=0;entryDy=0;" edge="1" parent="1" source="54Sqg8tzMFon0Dzdc4sl-26" target="54Sqg8tzMFon0Dzdc4sl-24">
          <mxGeometry relative="1" as="geometry" />
        </mxCell>
        <mxCell id="54Sqg8tzMFon0Dzdc4sl-33" style="edgeStyle=orthogonalEdgeStyle;rounded=0;orthogonalLoop=1;jettySize=auto;html=1;entryX=0.5;entryY=1;entryDx=0;entryDy=0;" edge="1" parent="1" source="54Sqg8tzMFon0Dzdc4sl-26" target="54Sqg8tzMFon0Dzdc4sl-22">
          <mxGeometry relative="1" as="geometry" />
        </mxCell>
        <mxCell id="54Sqg8tzMFon0Dzdc4sl-26" value="&lt;div&gt;&lt;font style=&quot;font-size: 14px;&quot;&gt;Inertial&lt;/font&gt;&lt;/div&gt;&lt;div&gt;&lt;font style=&quot;font-size: 14px;&quot;&gt;Navigation&lt;/font&gt;&lt;/div&gt;" style="rounded=0;whiteSpace=wrap;html=1;" vertex="1" parent="1">
          <mxGeometry x="400" y="280" width="120" height="60" as="geometry" />
        </mxCell>
        <mxCell id="54Sqg8tzMFon0Dzdc4sl-34" style="edgeStyle=orthogonalEdgeStyle;rounded=0;orthogonalLoop=1;jettySize=auto;html=1;entryX=0.5;entryY=1;entryDx=0;entryDy=0;" edge="1" parent="1" source="54Sqg8tzMFon0Dzdc4sl-27" target="54Sqg8tzMFon0Dzdc4sl-21">
          <mxGeometry relative="1" as="geometry">
            <mxPoint x="840" y="380" as="targetPoint" />
            <Array as="points">
              <mxPoint x="840" y="230" />
              <mxPoint x="840" y="370" />
              <mxPoint x="160" y="370" />
            </Array>
          </mxGeometry>
        </mxCell>
        <mxCell id="54Sqg8tzMFon0Dzdc4sl-27" value="&lt;font style=&quot;font-size: 14px;&quot;&gt;Control surfaces / propulsion&lt;br&gt;&lt;/font&gt;" style="rounded=0;whiteSpace=wrap;html=1;" vertex="1" parent="1">
          <mxGeometry x="700" y="200" width="120" height="60" as="geometry" />
        </mxCell>
        <mxCell id="54Sqg8tzMFon0Dzdc4sl-35" value="" style="endArrow=classic;html=1;rounded=0;entryX=0.5;entryY=1;entryDx=0;entryDy=0;" edge="1" parent="1" target="54Sqg8tzMFon0Dzdc4sl-26">
          <mxGeometry width="50" height="50" relative="1" as="geometry">
            <mxPoint x="460" y="370" as="sourcePoint" />
            <mxPoint x="530" y="440" as="targetPoint" />
          </mxGeometry>
        </mxCell>
        <mxCell id="54Sqg8tzMFon0Dzdc4sl-37" value="" style="endArrow=classic;html=1;rounded=0;entryX=0;entryY=0.5;entryDx=0;entryDy=0;" edge="1" parent="1" target="54Sqg8tzMFon0Dzdc4sl-21">
          <mxGeometry width="50" height="50" relative="1" as="geometry">
            <mxPoint x="20" y="230" as="sourcePoint" />
            <mxPoint x="90" y="310" as="targetPoint" />
          </mxGeometry>
        </mxCell>
        <mxCell id="54Sqg8tzMFon0Dzdc4sl-39" value="" style="html=1;labelBackgroundColor=#ffffff;startArrow=none;startFill=0;startSize=6;endArrow=classic;endFill=1;endSize=6;jettySize=auto;orthogonalLoop=1;strokeWidth=1;dashed=1;fontSize=14;rounded=0;" edge="1" parent="1">
          <mxGeometry width="60" height="60" relative="1" as="geometry">
            <mxPoint x="100" y="40" as="sourcePoint" />
            <mxPoint x="100" y="86" as="targetPoint" />
          </mxGeometry>
        </mxCell>
        <mxCell id="54Sqg8tzMFon0Dzdc4sl-40" value="" style="html=1;labelBackgroundColor=#ffffff;startArrow=none;startFill=0;startSize=6;endArrow=classic;endFill=1;endSize=6;jettySize=auto;orthogonalLoop=1;strokeWidth=1;dashed=1;fontSize=14;rounded=0;" edge="1" parent="1">
          <mxGeometry width="60" height="60" relative="1" as="geometry">
            <mxPoint x="385" y="120" as="sourcePoint" />
            <mxPoint x="384.66" y="226" as="targetPoint" />
          </mxGeometry>
        </mxCell>
        <mxCell id="54Sqg8tzMFon0Dzdc4sl-41" value="" style="html=1;labelBackgroundColor=#ffffff;startArrow=none;startFill=0;startSize=6;endArrow=classic;endFill=1;endSize=6;jettySize=auto;orthogonalLoop=1;strokeWidth=1;dashed=1;fontSize=14;rounded=0;" edge="1" parent="1">
          <mxGeometry width="60" height="60" relative="1" as="geometry">
            <mxPoint x="530" y="180" as="sourcePoint" />
            <mxPoint x="530" y="226" as="targetPoint" />
          </mxGeometry>
        </mxCell>
        <mxCell id="54Sqg8tzMFon0Dzdc4sl-43" value="" style="html=1;labelBackgroundColor=#ffffff;startArrow=none;startFill=0;startSize=6;endArrow=classic;endFill=1;endSize=6;jettySize=auto;orthogonalLoop=1;strokeWidth=1;dashed=1;fontSize=14;rounded=0;" edge="1" parent="1">
          <mxGeometry width="60" height="60" relative="1" as="geometry">
            <mxPoint x="680" y="180" as="sourcePoint" />
            <mxPoint x="680" y="226" as="targetPoint" />
          </mxGeometry>
        </mxCell>
        <mxCell id="54Sqg8tzMFon0Dzdc4sl-44" value="&lt;div&gt;&lt;font style=&quot;font-size: 14px;&quot;&gt;Accelaration&lt;/font&gt;&lt;/div&gt;&lt;div&gt;&lt;font style=&quot;font-size: 14px;&quot;&gt;commands&lt;/font&gt;&lt;/div&gt;" style="text;whiteSpace=wrap;html=1;" vertex="1" parent="1">
          <mxGeometry x="490" y="130" width="160" height="40" as="geometry" />
        </mxCell>
        <mxCell id="54Sqg8tzMFon0Dzdc4sl-45" value="&lt;font style=&quot;font-size: 14px;&quot;&gt;Denoising, estima-tion and preferen-cing systems&lt;/font&gt;" style="rounded=0;whiteSpace=wrap;html=1;" vertex="1" parent="1">
          <mxGeometry x="100" y="100" width="120" height="60" as="geometry" />
        </mxCell>
        <mxCell id="54Sqg8tzMFon0Dzdc4sl-46" value="&lt;font style=&quot;font-size: 14px;&quot;&gt;2D target locations and detection confidences&lt;br&gt;&lt;/font&gt;" style="text;html=1;align=center;verticalAlign=middle;whiteSpace=wrap;rounded=0;" vertex="1" parent="1">
          <mxGeometry x="80" y="380" width="120" height="30" as="geometry" />
        </mxCell>
      </root>
    </mxGraphModel>
  </diagram>
</mxfile>
